{
    "asset" : {
        "generator" : "Khronos glTF Blender I/O v1.7.33",
        "version" : "2.0"
    },
    "extensionsUsed" : [
        "KHR_lights_punctual"
    ],
    "extensionsRequired" : [
        "KHR_lights_punctual"
    ],
    "extensions" : {
        "KHR_lights_punctual" : {
            "lights" : [
                {
                    "color" : [
                        1,
                        0.8692447543144226,
                        0.9155214428901672
                    ],
                    "intensity" : 10,
                    "spot" : {
                        "innerConeAngle" : 0.3337942263919169,
                        "outerConeAngle" : 0.39269909262657166
                    },
                    "type" : "spot",
                    "range" : 100,
                    "name" : "Spot.002"
                }
            ]
        }
    },
    "scene" : 0,
    "scenes" : [
        {
            "name" : "Scene",
            "nodes" : [
                0,
                1,
                2,
                3,
                4,
                5,
                7
            ]
        }
    ],
    "nodes" : [
        {
            "mesh" : 0,
            "name" : "Sphere.001",
            "rotation" : [
                0,
                1,
                0,
                -1.6292068494294654e-07
            ],
            "translation" : [
                -0.2347872257232666,
                -6.555027961730957,
                1.587449550628662
            ]
        },
        {
            "mesh" : 1,
            "name" : "BezierCurve.003",
            "rotation" : [
                0,
                1,
                0,
                -1.6292068494294654e-07
            ],
            "translation" : [
                -0.2347872257232666,
                -6.555027961730957,
                1.587449550628662
            ]
        },
        {
            "mesh" : 2,
            "name" : "Sphere.002",
            "rotation" : [
                0,
                1,
                0,
                -1.6292068494294654e-07
            ],
            "translation" : [
                -0.2347872257232666,
                -6.555027961730957,
                1.587449550628662
            ]
        },
        {
            "mesh" : 3,
            "name" : "BezierCurve.005",
            "rotation" : [
                0,
                1,
                0,
                -1.6292068494294654e-07
            ],
            "translation" : [
                -0.2347872257232666,
                -6.555027961730957,
                1.587449550628662
            ]
        },
        {
            "mesh" : 4,
            "name" : "Sphere.003",
            "rotation" : [
                0,
                1,
                0,
                -1.6292068494294654e-07
            ],
            "translation" : [
                -0.2347872257232666,
                -6.555027961730957,
                1.587449550628662
            ]
        },
        {
            "mesh" : 5,
            "name" : "BezierCurve.007",
            "rotation" : [
                0,
                1,
                0,
                -1.6292068494294654e-07
            ],
            "translation" : [
                -0.2347872257232666,
                -6.555027961730957,
                1.587449550628662
            ]
        },
        {
            "extensions" : {
                "KHR_lights_punctual" : {
                    "light" : 0
                }
            },
            "name" : "Spot.002_Orientation",
            "rotation" : [
                -0.7071067690849304,
                0,
                0,
                0.7071067690849304
            ]
        },
        {
            "children" : [
                6
            ],
            "name" : "Spot.002",
            "rotation" : [
                0.01102664414793253,
                0.03882946819067001,
                0.5257710218429565,
                -0.849668025970459
            ],
            "translation" : [
                9.760113716125488,
                4.495153903961182,
                0.03756481409072876
            ]
        }
    ],
    "materials" : [
        {
            "doubleSided" : true,
            "name" : "Balloon material.001",
            "pbrMetallicRoughness" : {
                "baseColorFactor" : [
                    1,
                    0.8051576614379883,
                    0.008970285765826702,
                    0.2442748248577118
                ],
                "metallicFactor" : 0,
                "roughnessFactor" : 0.16412213444709778
            }
        },
        {
            "doubleSided" : true,
            "name" : "Balloon material",
            "pbrMetallicRoughness" : {
                "baseColorFactor" : [
                    0.0050962092354893684,
                    0.022235039621591568,
                    1,
                    0.2442748248577118
                ],
                "metallicFactor" : 0,
                "roughnessFactor" : 0.16412213444709778
            }
        },
        {
            "doubleSided" : true,
            "name" : "Balloon material.002",
            "pbrMetallicRoughness" : {
                "baseColorFactor" : [
                    1,
                    0,
                    0.6676846742630005,
                    0.2442748248577118
                ],
                "metallicFactor" : 0,
                "roughnessFactor" : 0.16412213444709778
            }
        },
        {
            "doubleSided" : true,
            "name" : "String",
            "pbrMetallicRoughness" : {
                "baseColorFactor" : [
                    0.800000011920929,
                    0.800000011920929,
                    0.800000011920929,
                    1
                ],
                "metallicFactor" : 0
            }
        }
    ],
    "meshes" : [
        {
            "name" : "Sphere.004",
            "primitives" : [
                {
                    "attributes" : {
                        "POSITION" : 0,
                        "NORMAL" : 1,
                        "TEXCOORD_0" : 2
                    },
                    "indices" : 3,
                    "material" : 0
                }
            ]
        },
        {
            "name" : "BezierCurve.008",
            "primitives" : [
                {
                    "attributes" : {
                        "POSITION" : 4,
                        "NORMAL" : 5,
                        "TEXCOORD_0" : 6
                    },
                    "indices" : 7
                }
            ]
        },
        {
            "name" : "Sphere.005",
            "primitives" : [
                {
                    "attributes" : {
                        "POSITION" : 8,
                        "NORMAL" : 9,
                        "TEXCOORD_0" : 10
                    },
                    "indices" : 3,
                    "material" : 1
                }
            ]
        },
        {
            "name" : "BezierCurve.010",
            "primitives" : [
                {
                    "attributes" : {
                        "POSITION" : 11,
                        "NORMAL" : 12,
                        "TEXCOORD_0" : 13
                    },
                    "indices" : 7
                }
            ]
        },
        {
            "name" : "Sphere.006",
            "primitives" : [
                {
                    "attributes" : {
                        "POSITION" : 14,
                        "NORMAL" : 15,
                        "TEXCOORD_0" : 16
                    },
                    "indices" : 3,
                    "material" : 2
                }
            ]
        },
        {
            "name" : "BezierCurve.012",
            "primitives" : [
                {
                    "attributes" : {
                        "POSITION" : 17,
                        "NORMAL" : 18,
                        "TEXCOORD_0" : 19
                    },
                    "indices" : 7,
                    "material" : 3
                }
            ]
        }
    ],
    "accessors" : [
        {
            "bufferView" : 0,
            "componentType" : 5126,
            "count" : 823,
            "max" : [
                1.0304253101348877,
                9.356070518493652,
                2.688910484313965
            ],
            "min" : [
                -0.9695747494697571,
                6.942932605743408,
                0.6889100074768066
            ],
            "type" : "VEC3"
        },
        {
            "bufferView" : 1,
            "componentType" : 5126,
            "count" : 823,
            "type" : "VEC3"
        },
        {
            "bufferView" : 2,
            "componentType" : 5126,
            "count" : 823,
            "type" : "VEC2"
        },
        {
            "bufferView" : 3,
            "componentType" : 5123,
            "count" : 4416,
            "type" : "SCALAR"
        },
        {
            "bufferView" : 4,
            "componentType" : 5126,
            "count" : 169,
            "max" : [
                0.0377059206366539,
                7.067087650299072,
                1.6982645988464355
            ],
            "min" : [
                0.00919747818261385,
                5.074565887451172,
                1.4854239225387573
            ],
            "type" : "VEC3"
        },
        {
            "bufferView" : 5,
            "componentType" : 5126,
            "count" : 169,
            "type" : "VEC3"
        },
        {
            "bufferView" : 6,
            "componentType" : 5126,
            "count" : 169,
            "type" : "VEC2"
        },
        {
            "bufferView" : 7,
            "componentType" : 5123,
            "count" : 864,
            "type" : "SCALAR"
        },
        {
            "bufferView" : 8,
            "componentType" : 5126,
            "count" : 823,
            "max" : [
                1.0304253101348877,
                8.861651420593262,
                0.6983641386032104
            ],
            "min" : [
                -0.9695747494697571,
                6.663744926452637,
                -1.301044225692749
            ],
            "type" : "VEC3"
        },
        {
            "bufferView" : 9,
            "componentType" : 5126,
            "count" : 823,
            "type" : "VEC3"
        },
        {
            "bufferView" : 10,
            "componentType" : 5126,
            "count" : 823,
            "type" : "VEC2"
        },
        {
            "bufferView" : 11,
            "componentType" : 5126,
            "count" : 169,
            "max" : [
                0.04857265576720238,
                6.80207633972168,
                1.431046962738037
            ],
            "min" : [
                0.014984003268182278,
                5.06367826461792,
                0.42494645714759827
            ],
            "type" : "VEC3"
        },
        {
            "bufferView" : 12,
            "componentType" : 5126,
            "count" : 169,
            "type" : "VEC3"
        },
        {
            "bufferView" : 13,
            "componentType" : 5126,
            "count" : 169,
            "type" : "VEC2"
        },
        {
            "bufferView" : 14,
            "componentType" : 5126,
            "count" : 823,
            "max" : [
                1.0304253101348877,
                8.815699577331543,
                4.707006454467773
            ],
            "min" : [
                -0.9695747494697571,
                6.62142276763916,
                2.707846164703369
            ],
            "type" : "VEC3"
        },
        {
            "bufferView" : 15,
            "componentType" : 5126,
            "count" : 823,
            "type" : "VEC3"
        },
        {
            "bufferView" : 16,
            "componentType" : 5126,
            "count" : 823,
            "type" : "VEC2"
        },
        {
            "bufferView" : 17,
            "componentType" : 5126,
            "count" : 169,
            "max" : [
                0.03899609297513962,
                6.936469078063965,
                3.0817224979400635
            ],
            "min" : [
                -0.02930612675845623,
                5.116642475128174,
                1.5136325359344482
            ],
            "type" : "VEC3"
        },
        {
            "bufferView" : 18,
            "componentType" : 5126,
            "count" : 169,
            "type" : "VEC3"
        },
        {
            "bufferView" : 19,
            "componentType" : 5126,
            "count" : 169,
            "type" : "VEC2"
        }
    ],
    "bufferViews" : [
        {
            "buffer" : 0,
            "byteLength" : 9876,
            "byteOffset" : 0
        },
        {
            "buffer" : 0,
            "byteLength" : 9876,
            "byteOffset" : 9876
        },
        {
            "buffer" : 0,
            "byteLength" : 6584,
            "byteOffset" : 19752
        },
        {
            "buffer" : 0,
            "byteLength" : 8832,
            "byteOffset" : 26336
        },
        {
            "buffer" : 0,
            "byteLength" : 2028,
            "byteOffset" : 35168
        },
        {
            "buffer" : 0,
            "byteLength" : 2028,
            "byteOffset" : 37196
        },
        {
            "buffer" : 0,
            "byteLength" : 1352,
            "byteOffset" : 39224
        },
        {
            "buffer" : 0,
            "byteLength" : 1728,
            "byteOffset" : 40576
        },
        {
            "buffer" : 0,
            "byteLength" : 9876,
            "byteOffset" : 42304
        },
        {
            "buffer" : 0,
            "byteLength" : 9876,
            "byteOffset" : 52180
        },
        {
            "buffer" : 0,
            "byteLength" : 6584,
            "byteOffset" : 62056
        },
        {
            "buffer" : 0,
            "byteLength" : 2028,
            "byteOffset" : 68640
        },
        {
            "buffer" : 0,
            "byteLength" : 2028,
            "byteOffset" : 70668
        },
        {
            "buffer" : 0,
            "byteLength" : 1352,
            "byteOffset" : 72696
        },
        {
            "buffer" : 0,
            "byteLength" : 9876,
            "byteOffset" : 74048
        },
        {
            "buffer" : 0,
            "byteLength" : 9876,
            "byteOffset" : 83924
        },
        {
            "buffer" : 0,
            "byteLength" : 6584,
            "byteOffset" : 93800
        },
        {
            "buffer" : 0,
            "byteLength" : 2028,
            "byteOffset" : 100384
        },
        {
            "buffer" : 0,
            "byteLength" : 2028,
            "byteOffset" : 102412
        },
        {
            "buffer" : 0,
            "byteLength" : 1352,
            "byteOffset" : 104440
        }
    ],
    "buffers" : [
        {
            "byteLength" : 105792,
            "uri" : "data:application/octet-stream;base64,"
        }
    ]
}
