{
    "asset" : {
        "generator" : "Khronos glTF Blender I/O v1.4.40",
        "version" : "2.0"
    },
    "scene" : 0,
    "scenes" : [
        {
            "extras" : {
                "send2ue" : {
                    "add_leaf_bones" : 0,
                    "advanced_ui_import" : 0,
                    "animation_folder_untitled_blend_file" : 0,
                    "apply_scale_options" : "FBX_SCALE_NONE",
                    "apply_unit_scale" : 1,
                    "armature_nodetype" : "NULL",
                    "auto_stash_active_action" : 1,
                    "auto_sync_control_nla_to_source" : 1,
                    "automatically_create_collections" : 1,
                    "automatically_scale_bones" : 1,
                    "axis_forward" : "-Y",
                    "axis_up" : "Z",
                    "bake_anim" : 1,
                    "bake_anim_force_startend_keying" : 1,
                    "bake_anim_simplify_factor" : 0,
                    "bake_anim_step" : 1,
                    "bake_anim_use_all_bones" : 1,
                    "bake_space_transform" : 0,
                    "combine_child_meshes" : 0,
                    "disk_animation_folder_path" : "C:/",
                    "disk_mesh_folder_path" : "C:/",
                    "draw" : "<bound method SendToUnrealPreferences.draw of <bpy_struct, SendToUnrealPreferences at 0x000001B6C0D9BC98>>",
                    "error_message" : "",
                    "export_all_actions" : 1,
                    "global_scale" : 1,
                    "import_animations" : 1,
                    "import_lods" : 0,
                    "import_materials" : 1,
                    "import_object_name_as_root" : 1,
                    "import_sockets" : 0,
                    "import_textures" : 1,
                    "incorrect_disk_animation_folder_path" : 0,
                    "incorrect_disk_mesh_folder_path" : 0,
                    "incorrect_unreal_animation_folder_path" : 0,
                    "incorrect_unreal_mesh_folder_path" : 0,
                    "incorrect_unreal_skeleton_path" : 0,
                    "mesh_folder_untitled_blend_file" : 0,
                    "mesh_smooth_type" : "FACE",
                    "options_type" : "export",
                    "path_mode" : "send_to_unreal",
                    "primary_bone_axis" : "Y",
                    "secondary_bone_axis" : "X",
                    "show_animation_settings" : 1,
                    "show_fbx_settings" : 1,
                    "show_name_affix_settings" : 0,
                    "source_application" : "ue4",
                    "sub_folder_path" : "",
                    "unreal_animation_folder_path" : "/Game/untitled_category/untitled_asset/animations/",
                    "unreal_mesh_folder_path" : "/Game/untitled_category/untitled_asset/",
                    "unreal_skeleton_asset_path" : "",
                    "use_armature_deform_only" : 0,
                    "use_collections_as_folders" : 0,
                    "use_custom_props" : 0,
                    "use_immediate_parent_collection_name" : 0,
                    "use_mesh_edges" : 0,
                    "use_mesh_modifiers" : 1,
                    "use_metadata" : 1,
                    "use_object_origin" : 0,
                    "use_subsurf" : 0,
                    "use_tspace" : 0,
                    "use_ue2rigify" : 0,
                    "validate_armature_transforms" : 1,
                    "validate_materials" : 0,
                    "validate_textures" : 0,
                    "validate_unit_settings" : 1
                }
            },
            "name" : "Scene",
            "nodes" : [
                0
            ]
        }
    ],
    "nodes" : [
        {
            "mesh" : 0,
            "name" : "Text",
            "rotation" : [
                0.7071068286895752,
                0,
                0,
                0.7071068286895752
            ]
        }
    ],
    "materials" : [
        {
            "doubleSided" : true,
            "emissiveFactor" : [
                1,
                0.9535978523947506,
                0.02220161884715055
            ],
            "name" : "Material",
            "pbrMetallicRoughness" : {
                "baseColorFactor" : [
                    1,
                    0.8075201511383057,
                    0,
                    1
                ],
                "metallicFactor" : 0.48091602325439453,
                "roughnessFactor" : 0.4312977194786072
            }
        }
    ],
    "meshes" : [
        {
            "name" : "Text",
            "primitives" : [
                {
                    "attributes" : {
                        "POSITION" : 0,
                        "NORMAL" : 1,
                        "TEXCOORD_0" : 2
                    },
                    "indices" : 3,
                    "material" : 0
                }
            ]
        }
    ],
    "accessors" : [
        {
            "bufferView" : 0,
            "componentType" : 5126,
            "count" : 8795,
            "max" : [
                8.37800121307373,
                0.10000000149011612,
                0.23000000417232513
            ],
            "min" : [
                0.07500000298023224,
                -0.10000000149011612,
                -0.6910000443458557
            ],
            "type" : "VEC3"
        },
        {
            "bufferView" : 1,
            "componentType" : 5126,
            "count" : 8795,
            "type" : "VEC3"
        },
        {
            "bufferView" : 2,
            "componentType" : 5126,
            "count" : 8795,
            "type" : "VEC2"
        },
        {
            "bufferView" : 3,
            "componentType" : 5123,
            "count" : 16188,
            "type" : "SCALAR"
        }
    ],
    "bufferViews" : [
        {
            "buffer" : 0,
            "byteLength" : 105540,
            "byteOffset" : 0
        },
        {
            "buffer" : 0,
            "byteLength" : 105540,
            "byteOffset" : 105540
        },
        {
            "buffer" : 0,
            "byteLength" : 70360,
            "byteOffset" : 211080
        },
        {
            "buffer" : 0,
            "byteLength" : 32376,
            "byteOffset" : 281440
        }
    ],
    "buffers" : [
        {
            "byteLength" : 313816,
            "uri" : "data:application/octet-stream;base64,"
        }
    ]
}
