{
    "asset" : {
        "generator" : "Khronos glTF Blender I/O v1.4.40",
        "version" : "2.0"
    },
    "scene" : 0,
    "scenes" : [
        {
            "name" : "Scene",
            "nodes" : [
                0
            ]
        }
    ],
    "nodes" : [
        {
            "mesh" : 0,
            "name" : "Heart"
        }
    ],
    "materials" : [
        {
            "doubleSided" : true,
            "emissiveFactor" : [
                1,
                0,
                0.006768442604243863
            ],
            "name" : "Heart hu3hu3",
            "pbrMetallicRoughness" : {
                "baseColorFactor" : [
                    1,
                    0,
                    0.0007246301393024623,
                    1
                ],
                "metallicFactor" : 0.7225433588027954,
                "roughnessFactor" : 0.5
            }
        }
    ],
    "meshes" : [
        {
            "name" : "Plane",
            "primitives" : [
                {
                    "attributes" : {
                        "POSITION" : 0,
                        "NORMAL" : 1,
                        "TEXCOORD_0" : 2
                    },
                    "indices" : 3,
                    "material" : 0
                }
            ]
        }
    ],
    "accessors" : [
        {
            "bufferView" : 0,
            "componentType" : 5126,
            "count" : 37976,
            "max" : [
                16.448394775390625,
                5.073653697967529,
                15.463761329650879
            ],
            "min" : [
                -16.448394775390625,
                0,
                -15.17785930633545
            ],
            "type" : "VEC3"
        },
        {
            "bufferView" : 1,
            "componentType" : 5126,
            "count" : 37976,
            "type" : "VEC3"
        },
        {
            "bufferView" : 2,
            "componentType" : 5126,
            "count" : 37976,
            "type" : "VEC2"
        },
        {
            "bufferView" : 3,
            "componentType" : 5123,
            "count" : 64512,
            "type" : "SCALAR"
        }
    ],
    "bufferViews" : [
        {
            "buffer" : 0,
            "byteLength" : 455712,
            "byteOffset" : 0
        },
        {
            "buffer" : 0,
            "byteLength" : 455712,
            "byteOffset" : 455712
        },
        {
            "buffer" : 0,
            "byteLength" : 303808,
            "byteOffset" : 911424
        },
        {
            "buffer" : 0,
            "byteLength" : 129024,
            "byteOffset" : 1215232
        }
    ],
    "buffers" : [
        {
            "byteLength" : 1344256,
            "uri" : "data:application/octet-stream;base64,"
        }
    ]
}
